<svg width="182" height="48" viewBox="0 0 182 48" fill="none" xmlns="http://www.w3.org/2000/svg">
<g clip-path="url(#clip0_1_9)">
<path d="M20.0514 0H0V48L20.0514 0Z" fill="black"/>
<path d="M34.1593 0H54.1846V48L34.1593 0Z" fill="black"/>
<path d="M27.1054 17.6911L39.8678 48H31.4945L27.6801 38.3503H18.3402L27.1054 17.6911Z" fill="black"/>
<path d="M86.8971 30.5249L89.2614 37.3111C89.3398 37.4811 89.4574 37.5595 89.6664 37.5595H94.2122C94.4604 37.5595 94.4996 37.4418 94.4604 37.1934L85.0683 11.0817C85.0291 10.8725 84.9899 10.8333 84.7809 10.8333H79.1377C78.981 10.8333 78.8895 10.951 78.8895 11.1209C78.8111 12.4939 78.6936 12.9123 78.5238 13.3176L70.1505 37.1542C70.1113 37.4418 70.2028 37.5595 70.4379 37.5595H74.5004C74.7486 37.5595 74.8662 37.4811 74.9576 37.2326L77.1914 30.5249H86.8971ZM78.4846 26.0923C79.7125 22.3789 81.3323 17.6194 81.9854 14.8998H82.0246C82.8345 17.7502 84.7417 23.3988 85.6038 26.0923H78.4846Z" fill="black"/>
<path d="M106.535 37.9649C108.977 37.9649 111.577 37.5203 114.216 36.3827C114.425 36.3043 114.464 36.2128 114.464 36.0166C114.385 35.2844 114.294 34.2253 114.294 33.4146V8.83274C114.294 8.67583 114.294 8.59738 114.098 8.59738H109.67C109.5 8.59738 109.422 8.67583 109.422 8.88504V17.2141C108.729 17.1357 108.246 17.0964 107.671 17.0964C100.526 17.0964 96.1367 21.8167 96.1367 27.7137C96.1367 34.5522 100.643 37.9649 106.535 37.9649ZM109.422 33.4146C108.69 33.65 107.88 33.7415 107.057 33.7415C103.818 33.7415 101.166 31.9109 101.166 27.4653C101.166 23.5296 103.896 21.2021 107.514 21.2021C108.246 21.2021 108.886 21.2806 109.422 21.4898V33.4146Z" fill="black"/>
<path d="M128.591 17.0964C122.491 17.0964 118.716 21.7774 118.716 27.5568C118.716 32.7216 121.72 37.9649 128.5 37.9649C134.234 37.9649 138.258 33.7415 138.258 27.426C138.258 21.8559 134.848 17.0964 128.591 17.0964ZM128.343 21.2021C131.791 21.2021 133.254 24.1702 133.254 27.5568C133.254 31.7409 131.099 33.8199 128.591 33.8199C125.495 33.8199 123.666 31.2179 123.666 27.4653C123.666 23.608 125.613 21.2021 128.343 21.2021Z" fill="black"/>
<path d="M142.836 8.59738C142.666 8.59738 142.548 8.67583 142.548 8.88504V36.7096C142.548 36.8273 142.666 37.0365 142.836 37.0757C144.782 37.6772 146.82 37.9649 148.923 37.9649C154.945 37.9649 160.797 34.2253 160.797 26.6938C160.797 21.2413 157.061 17.0964 151.209 17.0964C149.864 17.0964 148.61 17.3056 147.512 17.6717L147.46 8.92427C147.46 8.63661 147.382 8.59738 147.094 8.59738H142.836ZM155.794 27.1907C155.794 31.7017 152.711 33.8199 149.38 33.8199C148.688 33.8199 148.074 33.7807 147.512 33.6107V21.7382C148.152 21.4898 148.923 21.2806 150.347 21.2806C153.56 21.2806 155.794 23.3203 155.794 27.1907Z" fill="black"/>
<path d="M177.324 28.6551C179.309 28.6551 180.942 28.6159 181.504 28.4851C181.713 28.4459 181.791 28.3675 181.83 28.1975C181.948 27.7529 182 26.8246 182 25.687C182 21.8167 179.675 17.0964 173.666 17.0964C167.526 17.0964 164.117 22.1043 164.117 27.7529C164.117 32.7608 166.756 37.9649 174.149 37.9649C176.919 37.9649 178.708 37.5203 180.25 36.7881C180.406 36.7096 180.485 36.5789 180.485 36.3435V32.957C180.485 32.7608 180.367 32.7216 180.25 32.8001C178.708 33.4538 177.036 33.7807 175.207 33.7807C171.066 33.7807 169.185 31.4925 169.068 28.6551H177.324ZM169.068 25.1509C169.394 23.1634 170.648 21.006 173.457 21.006C176.553 21.006 177.363 23.608 177.363 24.7848C177.363 24.824 177.363 24.994 177.363 25.1117C177.193 25.1509 176.67 25.1509 175.129 25.1509H169.068Z" fill="black"/>
</g>
<defs>
<clipPath id="clip0_1_9">
<rect width="182" height="48" fill="white"/>
</clipPath>
</defs>
</svg>
