<svg width="780" height="253" viewBox="0 0 780 253" fill="none" xmlns="http://www.w3.org/2000/svg">
<g clip-path="url(#clip0_1_20)">
<path d="M741.367 61.461V121.217C741.367 157.284 730.633 173.457 714.523 173.457C701.091 173.457 694.29 165.275 694.29 141.922V61.461H655.738V147.699C655.738 178.997 665.459 198.778 696.279 198.778C718.929 198.778 736.466 183.915 745.335 150.533L748.114 151.556V192.212C748.114 217.455 738.14 233.3 715.095 233.3C695.408 233.3 672.024 221.189 660.261 212.334V249.882C670.064 250.967 682.211 252.085 692.01 252.085C750.06 252.085 779.988 227.319 779.988 156.327V61.461H741.367ZM121.994 87.306C121.994 67.34 98.867 58.735 69.344 58.735C51.386 58.735 31.08 62.059 12.222 68.007V107.05C40.013 86.809 70.89 78.144 90.779 78.144C103.285 78.144 111.771 81.634 111.771 87.885C111.771 113.644 0 109.562 0 165.221C0 186.555 14.67 198.778 35.309 198.778C66.527 198.778 90.14 168.44 107.805 131.459L111.384 132.745C102.08 155.344 82.827 180.123 79.077 196.052H119.268V113.643H109.985C96.511 142.921 76.767 169.9 56.266 169.9C46.907 169.9 40.953 164.222 40.953 157.021C40.953 126.204 121.994 120.034 121.994 87.306ZM514.462 61.461H553.017V196.052H514.462V61.461ZM452.101 58.735C429.417 58.735 411.861 73.64 403.005 107.126L399.394 105.797C402.448 93.582 407.75 79.097 408.599 61.461H368.409L368.363 196.052H407.013V136.296C407.013 100.229 417.747 84.055 433.857 84.055C447.289 84.055 454.09 92.237 454.09 115.591V196.052H492.642V109.814C492.642 78.516 482.921 58.735 452.101 58.735ZM275.749 61.461C260.21 61.461 249.266 52.035 249.266 41.986C249.266 32.149 259.798 25.369 277.603 25.369C290.398 25.369 306.527 28.936 323.853 37.686V2.123C310.231 0.6 298.331 0 287.976 0C244.134 0 225.785 15.676 225.909 34.128C225.985 45.44 230.624 53.854 245.959 59.297V61.461H194.485C177.064 61.461 167.824 50.6 167.824 42.34C167.824 31.981 176.992 25.369 190.204 25.369C199.422 25.369 207.031 28.218 216.493 33.299V2.123C166.973 -6.128 144.316 11.714 144.467 34.128C144.543 45.44 149.182 53.854 164.517 59.297V61.461H129.375V72.558H150.744L150.793 196.051H189.352L189.295 72.558H232.186L232.235 196.051H270.794L270.738 72.558H306.782L306.823 196.051H345.382L345.331 61.46L275.749 61.461ZM536.425 14.01C523.675 14.01 512.269 21.51 512.269 33.322C512.269 42.697 519.769 49.103 531.05 49.103C543.769 49.103 555.019 41.572 555.019 29.697C555.018 20.323 547.643 14.01 536.425 14.01ZM622.048 23.339L583.528 34.394V61.461H565.492V72.558H583.528V196.052H622.048V72.558H645.965V61.461H622.048V23.339Z" fill="black"/>
</g>
<defs>
<clipPath id="clip0_1_20">
<rect width="779.988" height="252.085" fill="white"/>
</clipPath>
</defs>
</svg>
