<?xml version="1.0" encoding="UTF-8"?>
<svg id="Layer_2" data-name="Layer 2" xmlns="http://www.w3.org/2000/svg" viewBox="0 0 638.57 79.89">
  <g id="Layer_1-2" data-name="Layer 1">
    <g>
      <path d="M25.58,65.61c-5.01,0-9.38-.74-13.12-2.22s-6.68-3.6-8.83-6.37S.28,50.92.04,47.02l-.04-.7h12.53l.09.48c.29,1.64,1.03,3.05,2.22,4.24s2.73,2.11,4.64,2.77c1.9.66,4.06.99,6.46.99s4.58-.33,6.35-.99,3.14-1.6,4.11-2.81c.97-1.22,1.45-2.63,1.45-4.24v-.04c0-2.14-.84-3.82-2.53-5.03-1.69-1.22-4.49-2.22-8.42-3.01l-6.68-1.36c-6.24-1.23-10.95-3.35-14.13-6.35-3.18-3-4.77-6.89-4.77-11.67v-.04c.03-3.87,1.08-7.24,3.16-10.11,2.08-2.87,4.94-5.11,8.57-6.72,3.63-1.61,7.79-2.42,12.48-2.42s9.12.77,12.68,2.31,6.33,3.69,8.33,6.46c1.99,2.77,3.09,6.01,3.29,9.73l.04.79h-12.53l-.09-.53c-.21-1.67-.83-3.09-1.87-4.26-1.04-1.17-2.39-2.08-4.06-2.72-1.67-.64-3.6-.97-5.8-.97s-4.21.32-5.85.97c-1.64.64-2.89,1.55-3.76,2.7-.86,1.16-1.3,2.48-1.3,3.98v.04c0,2.02.85,3.64,2.55,4.86,1.7,1.22,4.37,2.19,8,2.92l6.72,1.36c4.42.88,8.06,2.09,10.9,3.65,2.84,1.55,4.94,3.51,6.31,5.87,1.36,2.36,2.04,5.19,2.04,8.5v.04c0,4.07-1.02,7.6-3.05,10.57-2.04,2.97-4.97,5.27-8.79,6.9s-8.4,2.44-13.73,2.44Z"/>
      <path d="M79.76,65.48c-4.78,0-8.91-.97-12.39-2.92-3.49-1.95-6.19-4.76-8.11-8.44-1.92-3.68-2.88-8.06-2.88-13.16v-.09c0-5.07.97-9.43,2.92-13.07,1.95-3.65,4.67-6.45,8.15-8.42,3.49-1.96,7.57-2.94,12.26-2.94s8.83.97,12.33,2.92c3.5,1.95,6.22,4.75,8.15,8.39s2.9,8.02,2.9,13.12v.09c0,5.13-.96,9.52-2.88,13.18-1.92,3.66-4.62,6.47-8.11,8.42-3.49,1.95-7.6,2.92-12.35,2.92ZM79.8,55.42c2.08,0,3.88-.56,5.41-1.69,1.52-1.13,2.7-2.77,3.54-4.92s1.25-4.77,1.25-7.84v-.09c0-3.02-.42-5.6-1.27-7.76-.85-2.15-2.04-3.79-3.58-4.92-1.54-1.13-3.35-1.69-5.43-1.69s-3.84.57-5.38,1.71-2.73,2.78-3.58,4.92c-.85,2.14-1.27,4.72-1.27,7.73v.09c0,3.08.42,5.69,1.25,7.84s2.03,3.79,3.58,4.92c1.55,1.13,3.38,1.69,5.49,1.69Z"/>
      <path d="M109.69,79.89V17.4h12.83v8.22h.31c.85-1.9,1.97-3.54,3.36-4.92,1.39-1.38,3.02-2.43,4.88-3.16,1.86-.73,3.9-1.1,6.13-1.1,3.98,0,7.41.97,10.28,2.92,2.87,1.95,5.08,4.75,6.64,8.42,1.55,3.66,2.33,8.04,2.33,13.14v.04c0,5.1-.77,9.48-2.31,13.14-1.54,3.66-3.73,6.48-6.57,8.44-2.84,1.96-6.24,2.94-10.2,2.94-2.23,0-4.29-.37-6.2-1.1-1.91-.73-3.56-1.76-4.97-3.1-1.41-1.33-2.55-2.94-3.43-4.81h-.26v23.42h-12.83ZM132.98,54.84c2.14,0,3.98-.56,5.54-1.69,1.55-1.13,2.75-2.73,3.58-4.81.83-2.08,1.25-4.54,1.25-7.38v-.04c0-2.87-.42-5.34-1.27-7.4-.85-2.07-2.05-3.65-3.6-4.77-1.55-1.11-3.38-1.67-5.49-1.67s-3.91.56-5.49,1.69c-1.58,1.13-2.81,2.73-3.69,4.81-.88,2.08-1.32,4.54-1.32,7.38v.04c0,2.81.45,5.26,1.34,7.34.89,2.08,2.12,3.68,3.69,4.81,1.57,1.13,3.39,1.69,5.47,1.69Z"/>
      <path d="M184.7,65.48c-4.78,0-8.91-.97-12.39-2.92-3.49-1.95-6.19-4.76-8.11-8.44-1.92-3.68-2.88-8.06-2.88-13.16v-.09c0-5.07.97-9.43,2.92-13.07,1.95-3.65,4.67-6.45,8.15-8.42,3.49-1.96,7.57-2.94,12.26-2.94s8.83.97,12.33,2.92c3.5,1.95,6.22,4.75,8.15,8.39s2.9,8.02,2.9,13.12v.09c0,5.13-.96,9.52-2.88,13.18-1.92,3.66-4.62,6.47-8.11,8.42-3.49,1.95-7.6,2.92-12.35,2.92ZM184.75,55.42c2.08,0,3.88-.56,5.41-1.69,1.52-1.13,2.7-2.77,3.54-4.92s1.25-4.77,1.25-7.84v-.09c0-3.02-.42-5.6-1.27-7.76-.85-2.15-2.04-3.79-3.58-4.92-1.54-1.13-3.35-1.69-5.43-1.69s-3.84.57-5.38,1.71-2.73,2.78-3.58,4.92c-.85,2.14-1.27,4.72-1.27,7.73v.09c0,3.08.42,5.69,1.25,7.84s2.03,3.79,3.58,4.92c1.55,1.13,3.38,1.69,5.49,1.69Z"/>
      <path d="M214.63,64.51V17.4h12.83v8.22h.26c.7-2.9,1.98-5.16,3.82-6.77,1.85-1.61,4.14-2.42,6.9-2.42.7,0,1.38.04,2.02.13s1.2.21,1.67.35v11.34c-.53-.23-1.2-.42-2.02-.55s-1.7-.2-2.64-.2c-2.11,0-3.91.41-5.4,1.23-1.49.82-2.64,2.02-3.43,3.6s-1.19,3.52-1.19,5.8v26.37h-12.83Z"/>
      <path d="M267.85,65.48c-5.21,0-9.08-1.1-11.6-3.3-2.52-2.2-3.78-5.82-3.78-10.85v-24.26h-6.55v-9.67h6.55V5.89h12.96v11.51h8.61v9.67h-8.61v22.85c0,2.2.49,3.73,1.47,4.59.98.86,2.44,1.3,4.37,1.3.59,0,1.1-.02,1.54-.07s.85-.09,1.23-.15v9.4c-.7.12-1.57.23-2.61.33-1.04.1-2.23.15-3.58.15Z"/>
      <path d="M301.9,65.48c-4.8,0-8.94-.99-12.39-2.97s-6.12-4.8-8-8.46c-1.88-3.66-2.81-8-2.81-13.01v-.04c0-5.01.94-9.35,2.81-13.03,1.88-3.68,4.5-6.52,7.89-8.53,3.38-2.01,7.38-3.01,11.97-3.01s8.58.97,11.93,2.92c3.35,1.95,5.95,4.7,7.78,8.24,1.83,3.54,2.75,7.69,2.75,12.44v4h-38.8v-8.13h32.74l-6.11,7.6v-4.97c0-2.75-.42-5.06-1.27-6.92-.85-1.86-2.03-3.26-3.54-4.2-1.51-.94-3.26-1.41-5.25-1.41s-3.76.48-5.3,1.45-2.74,2.38-3.6,4.24c-.86,1.86-1.3,4.14-1.3,6.83v5.01c0,2.58.43,4.79,1.3,6.64s2.1,3.26,3.71,4.24c1.61.98,3.53,1.47,5.76,1.47,1.76,0,3.28-.28,4.57-.83,1.29-.56,2.34-1.26,3.16-2.11.82-.85,1.38-1.71,1.67-2.59l.09-.26h11.78l-.13.48c-.35,1.73-1.04,3.47-2.07,5.23s-2.41,3.37-4.15,4.83c-1.74,1.47-3.87,2.64-6.37,3.52s-5.44,1.32-8.81,1.32Z"/>
      <path d="M358.02,65.52c-4.31,0-8.2-.78-11.69-2.33s-6.48-3.78-8.96-6.68c-2.49-2.9-4.4-6.38-5.74-10.44-1.33-4.06-2-8.61-2-13.65v-.04c0-6.59,1.16-12.3,3.49-17.12,2.33-4.82,5.62-8.55,9.87-11.21,4.25-2.65,9.26-3.98,15.03-3.98,4.6,0,8.66.82,12.17,2.46,3.52,1.64,6.43,3.93,8.75,6.88s3.96,6.39,4.92,10.35l.18.7h-6.24l-.18-.44c-1.46-4.69-3.9-8.26-7.29-10.72s-7.5-3.69-12.3-3.69-8.56,1.08-11.89,3.23c-3.32,2.15-5.89,5.23-7.71,9.23-1.82,4-2.72,8.77-2.72,14.3v.04c0,4.25.52,8.06,1.56,11.45s2.54,6.28,4.5,8.68c1.96,2.4,4.31,4.24,7.05,5.52,2.74,1.27,5.81,1.91,9.21,1.91,4.07,0,7.65-.86,10.72-2.59,3.08-1.73,5.46-4.15,7.16-7.25,1.7-3.1,2.55-6.71,2.55-10.81v-1.41h-19.73v-5.27h25.71v5.27c0,4.25-.6,8.07-1.8,11.47-1.2,3.4-2.95,6.3-5.25,8.7-2.3,2.4-5.08,4.24-8.33,5.52s-6.93,1.91-11.03,1.91Z"/>
      <path d="M393.4,64.51V18.81h5.8v8.22h.13c.82-2.81,2.2-5.02,4.15-6.64,1.95-1.61,4.31-2.42,7.1-2.42.76,0,1.46.06,2.11.18.64.12,1.14.23,1.49.35v5.67c-.38-.18-.95-.33-1.71-.46s-1.65-.2-2.68-.2c-2.14,0-4.01.52-5.6,1.56-1.6,1.04-2.83,2.51-3.69,4.42-.87,1.9-1.3,4.15-1.3,6.72v28.3h-5.8Z"/>
      <path d="M432.51,65.35c-2.99,0-5.62-.56-7.91-1.69s-4.06-2.71-5.34-4.75c-1.27-2.04-1.91-4.39-1.91-7.05v-.09c0-2.61.64-4.85,1.91-6.72,1.28-1.87,3.13-3.36,5.58-4.46,2.45-1.1,5.41-1.75,8.9-1.96l17.14-1.1v4.53l-16.44,1.1c-3.57.26-6.34,1.14-8.28,2.61-1.95,1.48-2.92,3.48-2.92,6v.09c0,2.52.97,4.55,2.9,6.09s4.44,2.31,7.51,2.31c2.7,0,5.12-.56,7.27-1.69,2.15-1.13,3.87-2.67,5.14-4.64,1.28-1.96,1.91-4.16,1.91-6.59v-13.58c0-3.31-.99-5.9-2.97-7.78-1.98-1.87-4.75-2.81-8.33-2.81-3.31,0-6.01.75-8.11,2.24-2.09,1.49-3.39,3.54-3.89,6.15l-.09.44h-5.58l.04-.53c.29-2.64,1.19-4.97,2.68-6.99s3.52-3.61,6.06-4.77c2.55-1.16,5.54-1.74,8.96-1.74s6.5.62,9.03,1.87c2.54,1.25,4.5,3.01,5.89,5.3,1.39,2.29,2.09,4.98,2.09,8.09v31.29h-5.8v-8.39h-.13c-.82,1.85-2.01,3.46-3.56,4.83-1.55,1.38-3.34,2.45-5.36,3.23s-4.16,1.16-6.42,1.16Z"/>
      <path d="M463.54,64.51V18.81h5.8v7.82h.13c1.17-2.49,3.02-4.55,5.54-6.17s5.61-2.44,9.27-2.44c5.07,0,9.02,1.52,11.87,4.57,2.84,3.05,4.26,7.27,4.26,12.66v29.27h-5.8v-28.3c0-4.25-1.03-7.49-3.08-9.71-2.05-2.23-5.03-3.34-8.92-3.34-2.67,0-4.99.6-6.99,1.8-1.99,1.2-3.54,2.86-4.64,4.99-1.1,2.12-1.65,4.62-1.65,7.49v27.07h-5.8Z"/>
      <path d="M523.7,65.35c-2.99,0-5.62-.56-7.91-1.69s-4.06-2.71-5.34-4.75c-1.27-2.04-1.91-4.39-1.91-7.05v-.09c0-2.61.64-4.85,1.91-6.72,1.28-1.87,3.13-3.36,5.58-4.46,2.45-1.1,5.41-1.75,8.9-1.96l17.14-1.1v4.53l-16.44,1.1c-3.57.26-6.34,1.14-8.28,2.61-1.95,1.48-2.92,3.48-2.92,6v.09c0,2.52.97,4.55,2.9,6.09s4.44,2.31,7.52,2.31c2.7,0,5.12-.56,7.27-1.69,2.15-1.13,3.87-2.67,5.14-4.64,1.28-1.96,1.91-4.16,1.91-6.59v-13.58c0-3.31-.99-5.9-2.97-7.78-1.98-1.87-4.75-2.81-8.33-2.81-3.31,0-6.01.75-8.11,2.24-2.1,1.49-3.39,3.54-3.89,6.15l-.09.44h-5.58l.04-.53c.29-2.64,1.19-4.97,2.68-6.99s3.52-3.61,6.06-4.77c2.55-1.16,5.54-1.74,8.96-1.74s6.5.62,9.03,1.87c2.53,1.25,4.5,3.01,5.89,5.3,1.39,2.29,2.09,4.98,2.09,8.09v31.29h-5.8v-8.39h-.13c-.82,1.85-2.01,3.46-3.56,4.83-1.55,1.38-3.34,2.45-5.36,3.23s-4.16,1.16-6.42,1.16Z"/>
      <path d="M571.77,65.35c-3.84,0-7.21-.98-10.11-2.94-2.9-1.96-5.16-4.72-6.79-8.28-1.63-3.56-2.44-7.71-2.44-12.46v-.04c0-4.77.82-8.93,2.46-12.46,1.64-3.53,3.9-6.28,6.79-8.24,2.88-1.96,6.23-2.94,10.04-2.94,2.4,0,4.63.42,6.68,1.27,2.05.85,3.85,2.06,5.38,3.63,1.54,1.57,2.73,3.41,3.58,5.52h.18V1.1h5.76v63.41h-5.76v-9.54h-.22c-.85,2.11-2.04,3.93-3.56,5.47s-3.29,2.74-5.32,3.6-4.25,1.3-6.68,1.3ZM572.87,60.16c2.87,0,5.41-.77,7.62-2.31,2.21-1.54,3.94-3.71,5.19-6.5,1.24-2.8,1.87-6.03,1.87-9.69v-.04c0-3.66-.63-6.88-1.89-9.67-1.26-2.78-2.99-4.94-5.19-6.48s-4.73-2.31-7.6-2.31-5.49.75-7.67,2.26c-2.18,1.51-3.87,3.65-5.05,6.42-1.19,2.77-1.78,6.03-1.78,9.78v.04c0,3.75.59,7.02,1.78,9.8,1.19,2.78,2.87,4.93,5.05,6.44,2.18,1.51,4.74,2.26,7.67,2.26Z"/>
      <path d="M617.3,65.35c-2.99,0-5.62-.56-7.91-1.69s-4.06-2.71-5.34-4.75c-1.27-2.04-1.91-4.39-1.91-7.05v-.09c0-2.61.64-4.85,1.91-6.72,1.28-1.87,3.13-3.36,5.58-4.46,2.45-1.1,5.41-1.75,8.9-1.96l17.14-1.1v4.53l-16.44,1.1c-3.57.26-6.34,1.14-8.28,2.61-1.95,1.48-2.92,3.48-2.92,6v.09c0,2.52.97,4.55,2.9,6.09s4.44,2.31,7.52,2.31c2.7,0,5.12-.56,7.27-1.69,2.15-1.13,3.87-2.67,5.14-4.64,1.28-1.96,1.91-4.16,1.91-6.59v-13.58c0-3.31-.99-5.9-2.97-7.78-1.98-1.87-4.75-2.81-8.33-2.81-3.31,0-6.01.75-8.11,2.24-2.1,1.49-3.39,3.54-3.89,6.15l-.09.44h-5.58l.04-.53c.29-2.64,1.19-4.97,2.68-6.99s3.52-3.61,6.06-4.77c2.55-1.16,5.54-1.74,8.96-1.74s6.5.62,9.03,1.87c2.53,1.25,4.5,3.01,5.89,5.3,1.39,2.29,2.09,4.98,2.09,8.09v31.29h-5.8v-8.39h-.13c-.82,1.85-2.01,3.46-3.56,4.83-1.55,1.38-3.34,2.45-5.36,3.23s-4.16,1.16-6.42,1.16Z"/>
    </g>
  </g>
</svg>