<svg width="211" height="45" viewBox="0 0 211 45" fill="none" xmlns="http://www.w3.org/2000/svg">
<g clip-path="url(#clip0_1_23)">
<path d="M87.75 9V36H83.0625V14.8125H83L74.625 36H71.5L62.9375 14.8125H62.875V36H58.5625V9H65.3125L73.0625 29H73.1875L81.375 9H87.75ZM91.625 11.0625C91.625 10.3125 91.875 9.6875 92.4375 9.1875C93 8.6875 93.625 8.4375 94.375 8.4375C95.1875 8.4375 95.875 8.6875 96.375 9.1875C96.875 9.6875 97.1875 10.3125 97.1875 11.0625C97.1875 11.8125 96.9375 12.4375 96.375 12.9375C95.8125 13.4375 95.1875 13.6875 94.375 13.6875C93.5625 13.6875 92.9375 13.4375 92.4375 12.9375C91.9375 12.375 91.625 11.75 91.625 11.0625ZM96.6875 16.625V36H92.125V16.625H96.6875ZM110.5 32.6875C111.188 32.6875 111.937 32.5625 112.75 32.1875C113.562 31.875 114.312 31.4375 115 30.9375V35.1875C114.25 35.625 113.437 35.9375 112.5 36.125C111.562 36.3125 110.563 36.4375 109.438 36.4375C106.563 36.4375 104.25 35.5625 102.5 33.75C100.687 31.9375 99.8125 29.625 99.8125 26.875C99.8125 23.75 100.75 21.1875 102.563 19.1875C104.375 17.1875 106.937 16.1875 110.312 16.1875C111.187 16.1875 112.063 16.3125 112.875 16.5C113.75 16.6875 114.437 17 114.937 17.25V21.625C114.25 21.125 113.5 20.6875 112.812 20.4375C112.062 20.1875 111.312 20 110.562 20C108.75 20 107.312 20.5625 106.187 21.75C105.062 22.9375 104.562 24.5 104.562 26.5C104.562 28.4375 105.125 30 106.187 31.0625C107.25 32.125 108.687 32.6875 110.5 32.6875ZM127.937 16.3125C128.312 16.3125 128.625 16.3125 128.938 16.375C129.25 16.4375 129.5 16.5 129.687 16.5625V21.1875C129.437 21 129.125 20.8125 128.625 20.6875C128.125 20.5625 127.625 20.4375 126.938 20.4375C125.813 20.4375 124.875 20.9375 124.125 21.875C123.375 22.8125 122.937 24.25 122.937 26.25V36H118.375V16.625H122.937V19.6875H123C123.437 18.625 124.063 17.8125 124.875 17.1875C125.75 16.625 126.75 16.3125 127.937 16.3125ZM129.937 26.625C129.937 23.4375 130.875 20.875 132.625 19C134.437 17.125 136.937 16.1875 140.125 16.1875C143.125 16.1875 145.5 17.0625 147.187 18.875C148.875 20.6875 149.75 23.125 149.75 26.1875C149.75 29.3125 148.812 31.8125 147.062 33.6875C145.25 35.5625 142.812 36.5 139.687 36.5C136.687 36.5 134.313 35.625 132.563 33.875C130.813 32.0625 129.937 29.625 129.937 26.625ZM134.687 26.4375C134.687 28.4375 135.125 30 136.062 31.0625C137 32.125 138.312 32.6875 140 32.6875C141.625 32.6875 142.938 32.1875 143.813 31.0625C144.688 30 145.125 28.4375 145.125 26.3125C145.125 24.25 144.688 22.6875 143.813 21.5625C142.938 20.5 141.625 19.9375 140.063 19.9375C138.375 19.9375 137.125 20.5 136.187 21.625C135.125 22.8125 134.687 24.375 134.687 26.4375ZM156.562 21.75C156.562 22.375 156.75 22.9375 157.187 23.3125C157.625 23.6875 158.5 24.125 159.937 24.6875C161.75 25.4375 163.062 26.25 163.75 27.125C164.5 28.0625 164.875 29.125 164.875 30.4375C164.875 32.25 164.187 33.6875 162.75 34.8125C161.375 35.9375 159.437 36.4375 157.062 36.4375C156.25 36.4375 155.375 36.3125 154.375 36.125C153.375 35.9375 152.562 35.6875 151.875 35.375V30.875C152.687 31.4375 153.625 31.9375 154.562 32.25C155.5 32.5625 156.375 32.75 157.187 32.75C158.187 32.75 159 32.625 159.438 32.3125C159.938 32 160.187 31.5625 160.187 30.875C160.187 30.25 159.938 29.75 159.438 29.25C158.938 28.8125 157.937 28.3125 156.562 27.75C154.875 27.0625 153.688 26.25 153 25.375C152.312 24.5 151.938 23.375 151.938 22C151.938 20.25 152.625 18.8125 154 17.6875C155.375 16.5625 157.187 16 159.375 16C160.062 16 160.813 16.0625 161.625 16.25C162.438 16.4375 163.187 16.625 163.75 16.8125V21.25C163.125 20.875 162.438 20.5 161.625 20.1875C160.813 19.875 160 19.75 159.25 19.75C158.375 19.75 157.688 19.9375 157.25 20.25C156.813 20.6875 156.562 21.125 156.562 21.75ZM166.812 26.625C166.812 23.4375 167.75 20.875 169.5 19C171.313 17.125 173.813 16.1875 177 16.1875C180 16.1875 182.375 17.0625 184.062 18.875C185.75 20.6875 186.625 23.125 186.625 26.1875C186.625 29.3125 185.687 31.8125 183.937 33.6875C182.125 35.5625 179.687 36.5 176.562 36.5C173.562 36.5 171.188 35.625 169.438 33.875C167.75 32.0625 166.812 29.625 166.812 26.625ZM171.562 26.4375C171.562 28.4375 172 30 172.938 31.0625C173.875 32.125 175.187 32.6875 176.875 32.6875C178.5 32.6875 179.813 32.1875 180.688 31.0625C181.563 30 182 28.4375 182 26.3125C182 24.25 181.563 22.6875 180.688 21.5625C179.813 20.5 178.5 19.9375 176.938 19.9375C175.25 19.9375 174 20.5 173.062 21.625C172.062 22.8125 171.562 24.375 171.562 26.4375ZM201.812 20.375H195V36H190.375V20.375H187.125V16.625H190.375V13.9375C190.375 11.9375 191.062 10.25 192.375 8.9375C193.687 7.625 195.375 7 197.437 7C198 7 198.5 7.0625 198.937 7.0625C199.375 7.0625 199.75 7.1875 200.063 7.3125V11.25C199.938 11.1875 199.625 11.0625 199.25 10.9375C198.875 10.8125 198.438 10.75 197.938 10.75C197 10.75 196.25 11.0625 195.75 11.625C195.25 12.1875 195 13.125 195 14.25V16.5625H201.812V12.1875L206.375 10.8125V16.5625H211V20.3125H206.375V29.375C206.375 30.5625 206.625 31.375 207 31.875C207.438 32.375 208.125 32.625 209.062 32.625C209.312 32.625 209.625 32.5625 210 32.4375C210.375 32.3125 210.687 32.1875 210.937 32V35.75C210.625 35.9375 210.188 36.0625 209.5 36.1875C208.813 36.3125 208.187 36.375 207.5 36.375C205.562 36.375 204.125 35.875 203.188 34.875C202.25 33.875 201.75 32.3125 201.75 30.25L201.812 20.375Z" fill="black"/>
<path d="M21.375 0H0V21.375H21.375V0Z" fill="black"/>
<path d="M45 0H23.625V21.375H45V0Z" fill="black"/>
<path d="M21.375 23.625H0V45H21.375V23.625Z" fill="black"/>
<path d="M45 23.625H23.625V45H45V23.625Z" fill="black"/>
</g>
<defs>
<clipPath id="clip0_1_23">
<rect width="211" height="45" fill="white"/>
</clipPath>
</defs>
</svg>
