<svg width="305" height="67" viewBox="0 0 305 67" fill="none" xmlns="http://www.w3.org/2000/svg">
<g clip-path="url(#clip0_1_29)">
<path d="M35.9908 0C35.907 0 0.0674856 13.4433 0.0186167 13.4945C0 13.5107 -0.00465418 22.5753 0.00465418 33.6361L0.0232709 53.7452L4.49128 51.9979C6.94869 51.037 9.69 49.9644 10.5789 49.6131L12.1986 48.9779V32.6077C12.1986 21.3166 12.2219 16.2236 12.2777 16.191C12.4127 16.1073 35.9116 10.5094 35.9722 10.5443C36.0466 10.5908 36.0466 58.6474 35.9722 58.6916C35.9419 58.7102 27.9251 57.6237 18.156 56.2789C8.38916 54.9318 0.372334 53.8382 0.344409 53.8476C0.314157 53.8592 8.2728 56.8187 18.0303 60.4296C27.7855 64.0382 35.8511 66.9953 35.9535 67C36.0559 67.0023 40.5891 65.7762 46.0252 64.2732L55.9107 61.5394L55.892 33.6268L55.8734 5.71421L45.9693 2.8571C40.5239 1.28663 36.0327 0 35.9908 0ZM131.234 10.542C129.444 10.542 128.325 10.7793 126.982 11.44C124.914 12.4591 123.289 14.3763 122.556 16.6587C122.126 18.0081 122.098 18.299 122.061 21.7587L122.026 24.9415H117.122V28.813H122.037V53.68H126.58V28.813H137.824V53.68H142.367V28.813H149.143V24.9415H142.367V22.466C142.371 19.0063 142.504 17.9849 143.123 16.6889C143.675 15.5396 144.705 14.7485 146.016 14.4716C147.163 14.232 148.869 14.4298 149.89 14.9207L150.263 15.0998V10.9631L149.832 10.8468C149.029 10.6211 148.287 10.542 147.021 10.5443C145.231 10.5443 144.112 10.777 142.769 11.44C140.7 12.4591 139.076 14.3763 138.343 16.6587C137.913 18.0081 137.885 18.299 137.847 21.7587L137.813 24.9415H126.58V22.466C126.584 19.0063 126.717 17.9849 127.336 16.6889C127.888 15.5396 128.918 14.7485 130.229 14.4716C131.376 14.232 133.082 14.4298 134.103 14.9207L134.476 15.0998V10.9631L134.045 10.8468C133.242 10.6211 132.5 10.542 131.234 10.5443V10.542ZM155.696 11.7053C154.579 11.7402 153.637 12.3288 153.136 13.3293C152.555 14.4926 152.771 15.9304 153.658 16.7913C154.063 17.1727 154.563 17.4393 155.105 17.5637C157.558 18.0454 159.466 15.842 158.603 13.5317C158.258 12.615 157.216 11.8332 156.185 11.7239C156.022 11.7053 155.857 11.7006 155.696 11.7053ZM234.766 12.7523C234.415 12.7569 234.056 12.7709 233.691 12.7941C230.952 12.971 229.097 13.427 226.98 14.4461C226.398 14.7252 225.902 14.9998 225.881 15.0533C225.858 15.1091 225.851 16.1119 225.863 17.2845L225.881 19.4157L226.7 18.8667C228.874 17.4102 230.985 16.7099 233.451 16.6261C237.994 16.4702 240.663 18.1896 241.289 21.6796C241.736 24.1644 241.266 26.4747 239.995 28.0452C239.001 29.2713 237.384 30.1369 235.297 30.558C233.91 30.8372 233.049 30.8977 230.603 30.8977H228.376V34.7529L231.262 34.7878C233.705 34.818 234.301 34.8483 235.141 34.9809C237.379 35.3299 239.09 35.9674 240.295 36.8934C240.925 37.4008 241.475 38.0009 241.924 38.6733C243.023 40.5067 243.218 43.5127 242.371 45.6252C241.615 47.5191 239.788 49.1291 237.591 49.8388C235.499 50.5135 232.756 50.5973 230.324 50.0598C228.269 49.6038 226.447 48.7615 224.522 47.3772L224.352 47.2585L224.373 49.7434L224.392 52.2282L225.36 52.7145C227.133 53.6033 229.074 54.0895 231.611 54.278C232.751 54.3617 235.085 54.3036 236.158 54.1616C238.052 53.915 239.623 53.4613 241.07 52.7401C243.558 51.5 245.447 49.648 246.502 47.4191C247.311 45.7067 247.642 43.9966 247.567 41.8863C247.514 40.2926 247.27 39.2735 246.653 38.0451C245.229 35.2066 242.373 33.2987 238.745 32.752C238.406 32.7008 238.131 32.6357 238.131 32.6054C238.131 32.5775 238.492 32.4309 238.932 32.2797C239.88 31.946 240.796 31.5271 241.668 31.028C242.396 30.5591 243.07 30.0105 243.677 29.3923C244.91 28.0429 245.692 26.3444 245.985 24.3831C246.134 23.4059 246.134 21.3655 245.987 20.5279C245.499 17.7196 243.786 15.4488 241.124 14.0831C239.337 13.1641 237.224 12.722 234.764 12.7523H234.766ZM95.8714 12.7523C94.0394 12.7316 92.2114 12.9292 90.426 13.3409C87.6576 13.9782 85.0784 15.2592 82.8979 17.0798C79.4934 19.9392 77.2012 24.4343 76.4333 29.7809C76.0121 32.731 76.0958 36.4583 76.6497 39.2037C77.5433 43.6243 79.775 47.5936 82.7885 50.1203C84.7997 51.784 87.1447 52.9964 89.6651 53.6754C90.8323 53.9658 92.0204 54.165 93.2186 54.271C94.3356 54.3617 96.6626 54.3059 97.8262 54.1616C103.318 53.4799 107.791 50.7717 110.662 46.3837C111.425 45.1432 112.079 43.8393 112.617 42.4866C113.269 40.6374 113.723 38.7243 113.972 36.7794C114.081 35.9697 114.107 35.2578 114.107 33.1312C114.107 30.2881 114.048 29.5761 113.648 27.6636C112.063 20.0625 107.007 14.7159 99.9578 13.1827C98.6136 12.9025 97.2445 12.7591 95.8714 12.7546V12.7523ZM269.035 12.7755C267.22 12.7686 266.477 12.8523 265.051 13.2176C262.312 13.9179 259.843 15.4768 257.911 17.7243C255.717 20.2766 254.125 23.6502 253.22 27.659C252.184 32.2518 252.091 38.3964 252.992 42.6658C253.394 44.5783 253.888 46.0231 254.667 47.575C256.669 51.5768 259.794 53.8429 263.901 54.2757C264.823 54.371 266.633 54.3012 267.629 54.1314C269.806 53.7494 271.84 52.7882 273.517 51.3488C275.434 49.6968 276.977 46.9817 277.566 44.2246C277.994 42.2121 278.003 39.6784 277.592 37.5379C276.907 33.9874 274.69 30.9954 271.671 29.5552C268.497 28.0382 263.945 28.1034 261.211 29.7088C259.699 30.5952 258.605 31.7283 257.651 33.3918C257.508 33.6239 257.381 33.8648 257.269 34.1131C257.269 34.1456 257.236 34.1736 257.195 34.1736C257.032 34.1736 257.141 31.6096 257.385 29.7809C258.27 23.1477 261.528 18.2943 265.951 17.0123C267.143 16.668 267.888 16.5842 269.372 16.6284C271.341 16.6866 273.091 17.0914 274.755 17.8709C274.971 17.9759 275.191 18.0744 275.413 18.1663C275.427 18.1663 275.439 17.1961 275.439 16.0142V13.8597L274.927 13.6666C273.396 13.0803 271.436 12.7825 269.035 12.7755ZM293.87 13.4014C288.773 13.4014 284.596 13.4107 284.594 13.42C284.57 13.5201 283.214 33.5477 283.23 33.5686C283.242 33.5849 283.614 33.5593 284.056 33.5128C286.663 33.2429 291.382 33.2127 292.79 33.4593C295.522 33.9386 297.411 34.9297 298.703 36.563C299.801 37.952 300.311 39.5876 300.311 41.7235C300.311 44.9389 298.94 47.454 296.322 49.0431C293.539 50.7299 289.329 50.8671 285.587 49.3921C284.572 49.004 283.599 48.5153 282.681 47.9333L282.439 47.7867V52.6866L283.165 53.0286C284.002 53.421 284.883 53.7101 285.79 53.8894C286.535 54.0523 288.226 54.2594 289.104 54.2989C293.232 54.4804 296.243 53.9057 298.838 52.4446C301.693 50.8346 303.781 48.1682 304.546 45.1553C305.254 42.3749 305.121 38.8896 304.223 36.5537C302.773 32.7822 299.515 30.3276 294.949 29.5645C293.344 29.2969 292.154 29.2434 289.862 29.3388C288.722 29.3854 287.777 29.4086 287.759 29.39C287.728 29.3598 288.41 19.083 288.513 18.036L288.559 17.5707H303.141V13.4014H293.87ZM95.2408 16.9728C96.3787 16.9635 97.5423 17.0658 98.6174 17.2822C103.76 18.3083 107.423 22.2286 108.708 28.0778C109.49 31.6515 109.448 36.1861 108.601 39.4853C107.007 45.6811 102.904 49.3572 96.8302 50.0296C95.918 50.1319 93.933 50.111 93.0696 49.9947C86.3723 49.071 81.874 43.6941 81.1526 35.7464C81.0362 34.4644 81.0991 31.5212 81.2643 30.451C81.7576 27.2937 82.7304 24.7833 84.357 22.466C84.9783 21.5818 86.5049 20.0556 87.4101 19.4157C88.8071 18.4491 90.3684 17.7451 92.0178 17.3381C92.9905 17.1054 94.1028 16.9821 95.2408 16.9728ZM177.901 24.29C177.424 24.2831 176.943 24.2993 176.459 24.3342C173.387 24.5529 171.195 25.2556 169.019 26.7167C165.575 29.0317 163.415 32.8171 162.875 37.496C162.708 38.9525 162.761 41.8235 162.98 43.0334C163.546 46.1464 164.912 48.7871 166.969 50.7531C169.193 52.8773 171.709 53.9476 175.318 54.3059C175.886 54.3617 178.15 54.2733 178.916 54.164C180.484 53.9599 182.007 53.4894 183.417 52.7727L184.292 52.3283V47.9519L183.554 48.4335C182.292 49.2672 180.889 49.864 179.414 50.1947C178.42 50.4088 176.596 50.4577 175.511 50.2971C173.494 49.9993 171.897 49.2385 170.524 47.9146C168.658 46.1185 167.692 43.8477 167.46 40.7021C167.276 38.2475 167.751 35.5207 168.679 33.6757C169.396 32.2564 170.825 30.5882 172.007 29.8018C173.738 28.6455 175.584 28.1569 177.887 28.243C179.918 28.2957 181.896 28.8997 183.61 29.9903C183.949 30.202 184.243 30.3765 184.261 30.3765C184.278 30.3765 184.292 29.3249 184.292 28.0406V25.7023L183.677 25.4417C181.96 24.7065 179.97 24.3133 177.901 24.29ZM200.609 24.29C197.625 24.3157 194.75 25.416 192.511 27.3891C189.967 29.5924 188.145 33.3406 187.722 37.2424C187.605 38.3289 187.624 41.0441 187.759 42.2144C188.192 45.9324 189.444 48.7871 191.587 50.9276C192.739 52.1192 194.159 53.0189 195.729 53.5521C196.914 53.9639 197.747 54.1291 199.522 54.3059C200.123 54.3664 202.687 54.2733 203.585 54.1593C206.141 53.8336 208.426 53.0472 210.15 51.8932L210.653 51.5581V47.2865L209.703 47.9263C207.237 49.5921 204.623 50.4041 201.728 50.4041C198.989 50.4041 196.818 49.6364 195.213 48.1008C193.491 46.4535 192.62 44.3037 192.369 41.079L192.318 40.4275H212.687L212.64 38.287C212.617 37.0679 212.547 35.7464 212.477 35.2159C212.049 31.812 210.93 29.2993 208.982 27.3589C207.097 25.4813 204.986 24.5762 201.924 24.3342C201.482 24.2993 201.042 24.2854 200.609 24.29ZM153.462 24.9415V53.68H158.005V24.9415H155.733H153.462ZM200.721 28.229C200.872 28.229 201.023 28.2337 201.179 28.2406C203.064 28.3198 204.37 28.8223 205.531 29.9158C206.971 31.2746 207.725 33.1498 207.939 35.9046L207.991 36.556H192.401L192.45 36.2768C192.83 34.0782 193.76 32.1308 195.117 30.6976C196.711 29.0108 198.468 28.2337 200.721 28.2313V28.229ZM265.423 32.3588C266.726 32.3588 266.899 32.3751 267.583 32.5589C268.886 32.9079 269.724 33.3779 270.664 34.2806C271.606 35.1856 272.225 36.2117 272.674 37.617C273.021 38.6965 273.14 39.4992 273.186 40.9859C273.228 42.4913 273.117 43.5173 272.788 44.6527C271.965 47.5005 270.024 49.4991 267.413 50.1901C266.752 50.3669 264.881 50.446 264.201 50.325C263.43 50.1589 262.683 49.8946 261.979 49.5386C260.276 48.5894 258.735 46.6187 258.023 44.4759C257.616 43.2614 257.485 42.4517 257.441 40.9115C257.399 39.3154 257.495 38.65 257.937 37.4401C258.651 35.4858 260.432 33.6477 262.358 32.88C263.485 32.4286 263.892 32.3588 265.423 32.3588Z" fill="black"/>
</g>
<defs>
<clipPath id="clip0_1_29">
<rect width="305" height="67" fill="white"/>
</clipPath>
</defs>
</svg>
